<?xml version="1.0" encoding="utf-8"?>
<!-- Generator: Adobe Illustrator 22.1.0, SVG Export Plug-In . SVG Version: 6.00 Build 0)  -->
<svg version="1.1" id="Layer_1" xmlns="http://www.w3.org/2000/svg" xmlns:xlink="http://www.w3.org/1999/xlink" x="0px" y="0px"
	 viewBox="0 0 318 104" style="enable-background:new 0 0 318 104;" xml:space="preserve">
<style type="text/css">
	.st0{fill:#CFCFCF;}
</style>
<g>
	<path class="st0" d="M76.8,31.6h5.8l21.7,28.8h0.1V32.7h8v42.1h-5.8L85,45.9h-0.1v28h-8V31.6z"/>
	<path class="st0" d="M145.5,60.5c0,8.3-5.7,14.3-14.1,14.3c-8.4,0-14.1-6-14.1-14.3c0-8.4,5.7-14.3,14.1-14.3
		C139.8,46.2,145.5,52.1,145.5,60.5z M125.1,60.5c0,3.6,2.4,7.5,6.3,7.5c3.9,0,6.3-3.9,6.3-7.5c0-3.7-2.4-7.5-6.3-7.5
		C127.5,52.9,125.1,56.8,125.1,60.5z"/>
	<path class="st0" d="M157.9,49.8h0.1c1.5-2.4,3.8-3.7,6.7-3.7c1.1,0,2.2,0.3,3.2,0.7l-0.9,7.1c-0.9-0.7-2-1-3.2-1
		c-5.3,0-5.9,4.7-5.9,8.9v12.1h-7.7V47h7.7V49.8z"/>
	<path class="st0" d="M182.2,73.9h-7.7V53.5h-2.6V47h2.6V38h7.7V47h4.7v6.5h-4.7V73.9z"/>
	<path class="st0" d="M197.3,27.5v21.8h0.1c1.6-2.2,4.3-3.1,7-3.1c7.2,0,9.3,5.1,9.3,11.3v16.4h-7.7V59.7c0-3.2,0.2-7.4-4.2-7.4
		c-4.5,0-4.6,5.1-4.6,8.3v13.3h-7.7V27.5H197.3z"/>
	<path class="st0" d="M234.1,53.4c-1.1-1-2.5-1.9-4-1.9c-1.3,0-2.5,1-2.5,2.3c0,2,2.8,2.5,5.5,3.7c2.8,1.2,5.5,3.1,5.5,7.7
		c0,6-4.8,9.5-10.4,9.5c-3.6,0-7.1-1.6-9.5-4.5l3.5-4.5c1.5,1.6,3.4,3.1,5.7,3.1c1.7,0,3.1-1.1,3.1-2.9c0-2.4-2.7-2.9-5.4-4
		c-2.7-1.1-5.4-2.7-5.4-7.1c0-5,3.5-8.7,8.5-8.7c2.8,0,6.5,0.9,8.6,2.8L234.1,53.4z"/>
	<path class="st0" d="M252.6,35.8c0,2.5-2,4.5-4.5,4.5c-2.5,0-4.5-2-4.5-4.5c0-2.5,2-4.5,4.5-4.5C250.5,31.2,252.6,33.3,252.6,35.8z
		 M251.8,73.9h-7.7V47h7.7V73.9z"/>
	<path class="st0" d="M276.5,71.4h-0.1c-1.6,2.2-4.4,3.4-7.2,3.4c-7.9,0-12.4-7.2-12.4-14.4c0-7.1,4.5-14.2,12.3-14.2
		c2.8,0,5.6,1.2,7.3,3.3h0.1v-22h7.7v46.4h-7.7V71.4z M277.3,60.4c0-3.6-2.4-7.5-6.3-7.5c-3.9,0-6.3,3.9-6.3,7.5
		c0,3.6,2.4,7.5,6.3,7.5C274.9,68,277.3,64,277.3,60.4z"/>
	<path class="st0" d="M296.9,61.7c0,3.4,1.3,7.2,5.3,7.2c2.5,0,4.1-1.5,5.1-3.7l7.1,1.1c-1.9,5.4-6.6,8.4-12.2,8.4
		c-8.3,0-13.4-5.9-13.4-14.1c0-8.1,4.3-14.5,13-14.5c8.8,0,12.7,6.5,12.7,14.6v0.9H296.9z M307.4,56.9c-0.4-2.7-2.1-5.4-5.1-5.4
		c-3.1,0-4.8,2.6-5.1,5.4H307.4z"/>
</g>
<g>
	<path class="st0" d="M79.5,98.6h-2.9V83.8h2.9V98.6z"/>
	<path class="st0" d="M84.7,89.8L84.7,89.8c0.6-0.9,1.6-1.2,2.5-1.2c2.6,0,3.3,1.8,3.3,4.1v5.9h-2.7v-5.1c0-1.2,0.1-2.6-1.5-2.6
		c-1.6,0-1.6,1.8-1.6,3v4.8h-2.7V89h2.7V89.8z"/>
	<path class="st0" d="M99.3,97.7L99.3,97.7c-0.6,0.8-1.6,1.2-2.6,1.2c-2.8,0-4.4-2.6-4.4-5.2c0-2.5,1.6-5.1,4.4-5.1
		c1,0,2,0.4,2.6,1.2h0V82h2.7v16.6h-2.7V97.7z M99.6,93.8c0-1.3-0.9-2.7-2.3-2.7c-1.4,0-2.3,1.4-2.3,2.7c0,1.3,0.9,2.7,2.3,2.7
		C98.7,96.5,99.6,95.1,99.6,93.8z"/>
	<path class="st0" d="M106.6,94.2c0,1.2,0.5,2.6,1.9,2.6c0.9,0,1.5-0.5,1.8-1.3l2.5,0.4c-0.7,1.9-2.4,3-4.4,3c-3,0-4.8-2.1-4.8-5
		c0-2.9,1.5-5.2,4.7-5.2c3.2,0,4.6,2.3,4.6,5.2v0.3H106.6z M110.4,92.5c-0.1-1-0.8-1.9-1.8-1.9c-1.1,0-1.7,0.9-1.8,1.9H110.4z"/>
	<path class="st0" d="M117.4,89.8c0.6-0.7,1.6-1.2,2.7-1.2c2.7,0,4.4,2.6,4.4,5.1c0,2.6-1.6,5.2-4.5,5.2c-1,0-2-0.4-2.6-1.2h0v6
		h-2.7V89h2.7V89.8z M121.6,93.8c0-1.3-0.9-2.7-2.3-2.7c-1.4,0-2.3,1.4-2.3,2.7c0,1.3,0.9,2.7,2.3,2.7
		C120.8,96.5,121.6,95.1,121.6,93.8z"/>
	<path class="st0" d="M128.3,94.2c0,1.2,0.5,2.6,1.9,2.6c0.9,0,1.5-0.5,1.8-1.3l2.5,0.4c-0.7,1.9-2.4,3-4.4,3c-3,0-4.8-2.1-4.8-5
		c0-2.9,1.5-5.2,4.7-5.2c3.2,0,4.6,2.3,4.6,5.2v0.3H128.3z M132,92.5c-0.1-1-0.8-1.9-1.8-1.9c-1.1,0-1.7,0.9-1.8,1.9H132z"/>
	<path class="st0" d="M139,89.8L139,89.8c0.6-0.9,1.6-1.2,2.5-1.2c2.6,0,3.3,1.8,3.3,4.1v5.9h-2.7v-5.1c0-1.2,0.1-2.6-1.5-2.6
		c-1.6,0-1.6,1.8-1.6,3v4.8h-2.7V89h2.7V89.8z"/>
	<path class="st0" d="M153.6,97.7L153.6,97.7c-0.6,0.8-1.6,1.2-2.6,1.2c-2.8,0-4.4-2.6-4.4-5.2c0-2.5,1.6-5.1,4.4-5.1
		c1,0,2,0.4,2.6,1.2h0V82h2.7v16.6h-2.7V97.7z M153.9,93.8c0-1.3-0.9-2.7-2.3-2.7c-1.4,0-2.3,1.4-2.3,2.7c0,1.3,0.9,2.7,2.3,2.7
		C153,96.5,153.9,95.1,153.9,93.8z"/>
	<path class="st0" d="M160.9,94.2c0,1.2,0.5,2.6,1.9,2.6c0.9,0,1.5-0.5,1.8-1.3l2.5,0.4c-0.7,1.9-2.4,3-4.4,3c-3,0-4.8-2.1-4.8-5
		c0-2.9,1.5-5.2,4.7-5.2c3.2,0,4.6,2.3,4.6,5.2v0.3H160.9z M164.7,92.5c-0.1-1-0.8-1.9-1.8-1.9c-1.1,0-1.7,0.9-1.8,1.9H164.7z"/>
	<path class="st0" d="M171.7,89.8L171.7,89.8c0.6-0.9,1.6-1.2,2.5-1.2c2.6,0,3.3,1.8,3.3,4.1v5.9h-2.7v-5.1c0-1.2,0.1-2.6-1.5-2.6
		c-1.6,0-1.6,1.8-1.6,3v4.8h-2.7V89h2.7V89.8z"/>
	<path class="st0" d="M183,98.6h-2.7v-7.3h-0.9V89h0.9v-3.3h2.7V89h1.7v2.3H183V98.6z"/>
	<path class="st0" d="M198.8,87.1c-0.5-0.7-1.3-1.2-2.2-1.2c-0.9,0-1.8,0.7-1.8,1.7c0,2.5,5.9,1.5,5.9,6.4c0,3-1.8,5.1-4.9,5.1
		c-2,0-3.5-1.2-4.5-2.9l1.9-1.8c0.4,1.1,1.4,2.2,2.7,2.2c1.2,0,1.9-1,1.9-2.1c0-1.5-1.4-2-2.6-2.4c-1.9-0.8-3.3-1.7-3.3-4
		c0-2.5,1.8-4.4,4.3-4.4c1.3,0,3.1,0.6,4,1.6L198.8,87.1z"/>
	<path class="st0" d="M209,91.9c-0.6-0.6-1.2-0.9-2-0.9c-1.6,0-2.4,1.5-2.4,2.9c0,1.5,1,2.8,2.5,2.8c0.7,0,1.4-0.4,1.9-0.9v2.6
		c-0.7,0.4-1.5,0.6-2.4,0.6c-2.8,0-4.9-2.3-4.9-5.1c0-2.9,2.1-5.2,5-5.2c0.8,0,1.6,0.2,2.2,0.6V91.9z"/>
	<path class="st0" d="M213.8,82v7.8h0c0.6-0.8,1.5-1.1,2.5-1.1c2.6,0,3.3,1.8,3.3,4.1v5.9H217v-5.1c0-1.2,0.1-2.6-1.5-2.6
		c-1.6,0-1.6,1.8-1.6,3v4.8h-2.7V82H213.8z"/>
	<path class="st0" d="M231.5,93.8c0,3-2,5.1-5.1,5.1c-3,0-5.1-2.1-5.1-5.1c0-3,2.1-5.1,5.1-5.1C229.5,88.6,231.5,90.8,231.5,93.8z
		 M224.2,93.8c0,1.3,0.9,2.7,2.3,2.7c1.4,0,2.3-1.4,2.3-2.7c0-1.3-0.9-2.7-2.3-2.7C225.1,91.1,224.2,92.4,224.2,93.8z"/>
	<path class="st0" d="M242.7,93.8c0,3-2,5.1-5.1,5.1c-3,0-5.1-2.1-5.1-5.1c0-3,2.1-5.1,5.1-5.1C240.6,88.6,242.7,90.8,242.7,93.8z
		 M235.3,93.8c0,1.3,0.9,2.7,2.3,2.7c1.4,0,2.3-1.4,2.3-2.7c0-1.3-0.9-2.7-2.3-2.7C236.2,91.1,235.3,92.4,235.3,93.8z"/>
	<path class="st0" d="M247.1,98.6h-2.7V82h2.7V98.6z"/>
	<path class="st0" d="M255.6,83.8h4.1c4.3,0,7.1,3.2,7.1,7.4c0,4.2-2.9,7.4-7.2,7.4h-4.1V83.8z M258.4,96.1h0.5c3.6,0,4.9-2,4.9-4.9
		c0-3.2-1.6-4.9-4.9-4.9h-0.5V96.1z"/>
	<path class="st0" d="M271.7,84.9c0,0.9-0.7,1.6-1.6,1.6c-0.9,0-1.6-0.7-1.6-1.6c0-0.9,0.7-1.6,1.6-1.6
		C271,83.3,271.7,84,271.7,84.9z M271.4,98.6h-2.7V89h2.7V98.6z"/>
	<path class="st0" d="M278.8,91.2c-0.4-0.4-0.9-0.7-1.5-0.7c-0.5,0-0.9,0.4-0.9,0.8c0,0.7,1,0.9,2,1.3c1,0.4,2,1.1,2,2.8
		c0,2.1-1.7,3.4-3.7,3.4c-1.3,0-2.5-0.6-3.4-1.6l1.3-1.6c0.5,0.6,1.2,1.1,2,1.1c0.6,0,1.1-0.4,1.1-1c0-0.8-1-1-1.9-1.5
		c-1-0.4-1.9-1-1.9-2.5c0-1.8,1.3-3.1,3.1-3.1c1,0,2.3,0.3,3.1,1L278.8,91.2z"/>
	<path class="st0" d="M285.4,98.6h-2.7v-7.3h-0.9V89h0.9v-3.3h2.7V89h1.7v2.3h-1.7V98.6z"/>
	<path class="st0" d="M290.8,90L290.8,90c0.6-0.8,1.4-1.3,2.4-1.3c0.4,0,0.8,0.1,1.1,0.2l-0.3,2.6c-0.3-0.2-0.7-0.4-1.1-0.4
		c-1.9,0-2.1,1.7-2.1,3.2v4.3h-2.7V89h2.7V90z"/>
	<path class="st0" d="M298.8,84.9c0,0.9-0.7,1.6-1.6,1.6c-0.9,0-1.6-0.7-1.6-1.6c0-0.9,0.7-1.6,1.6-1.6
		C298.1,83.3,298.8,84,298.8,84.9z M298.6,98.6h-2.7V89h2.7V98.6z"/>
	<path class="st0" d="M307.6,91.9c-0.6-0.6-1.2-0.9-2-0.9c-1.5,0-2.4,1.5-2.4,2.9c0,1.5,1,2.8,2.5,2.8c0.7,0,1.4-0.4,1.9-0.9v2.6
		c-0.7,0.4-1.5,0.6-2.4,0.6c-2.8,0-4.9-2.3-4.9-5.1c0-2.9,2.1-5.2,5-5.2c0.8,0,1.6,0.2,2.2,0.6V91.9z"/>
	<path class="st0" d="M312.7,98.6H310v-7.3h-0.9V89h0.9v-3.3h2.7V89h1.7v2.3h-1.7V98.6z"/>
</g>
<g>
	<path class="st0" d="M44.6,63.6c-1.7-20.1,2.1-32,2.1-32h0l0.8-2.4H36l1.1-13.8l7.8-3.5l-1.2-2.3l-3.5,1.7c0-0.3,0-1.4-1-1.2v-1
		h-0.3v1.1c-0.2,0.1-0.7,0.3-0.9,0.7c-0.2,0.7-2,0.8-3,1c0,0-1.6-0.2-2.1-1.2c-0.1-0.2,0.2-0.5,0.6-0.8c0,0,0.8,0.9,1.4,0.3l0.8-0.8
		c0,0,0.5,0.3,0.6,0.2l0.2-0.9c0,0,1.1-1.1,1.2-1.7c0.1-0.9,0.1-3.7-2.9-3.9c-2-0.1-3.4,1.3-3.4,2.7c0,1.7-1,1.6-1,1.6
		s-2.2,0.1-4.1,1.3c-3.8,2.4-5.3,6.4-5.7,6.9c-0.9,1.2-1.1,2.5-0.7,4.2H19L17.1,14l-2.6,2.2c3,4,3.5,11.3,3.6,13h-8l0.4,2.4h0
		c0,0,1.9,15.7,1.2,33.4c-0.8,20.4-8.2,34.5-8.2,34.5l12.3,0c0,0,3.2-7.5,4.2-22.4c0.9-13.8-0.6-22.9-0.6-22.9
		c2.2,2.2,7.6,13.4,10.5,19.5c2.9,6.1,11.7,25.9,11.7,25.9h11.9C53.4,99.6,46.3,84.2,44.6,63.6z M28.6,16.1c1.7-1.4,2.2-2.2,2.9-2.7
		c0,0,0.9,0.8,2.3,1l-2,0.9l1.1,2l1.5-0.7l-1,10.6c0,0-0.4-1.5-0.6-2.5c0,0-1-5.6-1.3-6.2c-0.3-0.7-2.1-0.8-2.9-0.9
		C28.7,17.6,27.9,16.7,28.6,16.1z M29.6,24l1.7,4.2c0,0-0.2,0.8,0.1,1.1h-2.1c0-0.1-0.2-0.8-2.2-1.1L29.6,24z M19.7,22.3h6.4
		c0,0,1-0.1,0.5,0.8l-2.1,5c-0.4,0.2-0.5,1-0.5,1.1h-3.3L19.7,22.3z M28.2,58.7c-5.4-10.3-10.6-25-11.2-26.8h24
		c-0.3,1.3-2.3,9.1-3.7,21.9c-1.4,12.9,0.5,22.1,0.5,22.1S34,69.9,28.2,58.7z"/>
	<g>
		<path class="st0" d="M56.1,98.2c-0.1,0-0.3-0.1-0.6-0.2c-0.3-0.1-0.4-0.1-0.5-0.2C55,97.8,55,97.8,55,97.7c0-0.1,0-0.2,0.1-0.3
			c0.1-0.1,0.2-0.1,0.4-0.1c0.2,0,0.3,0,0.4,0.1c0.1,0.1,0.2,0.2,0.2,0.3l0,0l0.3,0v0c0-0.1,0-0.3-0.1-0.4c-0.1-0.1-0.2-0.2-0.3-0.3
			C55.9,97,55.7,97,55.5,97c-0.2,0-0.3,0-0.5,0.1c-0.1,0.1-0.2,0.1-0.3,0.3c-0.1,0.1-0.1,0.2-0.1,0.4c0,0.1,0,0.2,0.1,0.3
			c0.1,0.1,0.1,0.2,0.3,0.2c0.1,0,0.3,0.1,0.5,0.2c0.2,0.1,0.4,0.1,0.4,0.1c0.1,0,0.2,0.1,0.2,0.1c0,0.1,0.1,0.1,0.1,0.2
			c0,0.1,0,0.1-0.1,0.2c0,0.1-0.1,0.1-0.2,0.1c-0.1,0-0.2,0.1-0.3,0.1c-0.1,0-0.3,0-0.4-0.1c-0.1,0-0.2-0.1-0.2-0.2
			c-0.1-0.1-0.1-0.2-0.1-0.3l0,0l-0.3,0v0c0,0.2,0.1,0.3,0.1,0.5c0.1,0.1,0.2,0.2,0.4,0.3c0.2,0.1,0.3,0.1,0.6,0.1
			c0.2,0,0.3,0,0.5-0.1c0.1-0.1,0.3-0.2,0.3-0.3c0.1-0.1,0.1-0.2,0.1-0.4c0-0.1,0-0.3-0.1-0.4C56.3,98.4,56.2,98.3,56.1,98.2z"/>
		<path class="st0" d="M58.9,97.1l-0.6,1.7c-0.1,0.1-0.1,0.3-0.1,0.4c0-0.1-0.1-0.2-0.1-0.3l-0.6-1.8l0,0h-0.5v2.5h0.3v-2l0.7,2l0,0
			h0.3l0.7-2v2h0.3v-2.5H58.9z"/>
	</g>
</g>
</svg>
